<svg xmlns="http://www.w3.org/2000/svg" viewBox="0 0 64 64">
    <defs>
        <linearGradient id="bg" x1="0" y1="0" x2="1" y2="1">
            <stop offset="0%" stop-color="#FF6B35"/>
            <stop offset="55%" stop-color="#FF8A4C"/>
            <stop offset="100%" stop-color="#FFC23C"/>
        </linearGradient>
    </defs>
    <!-- Tlo z zaokraglonymi rogami - jak .logo-mark w landing v2 -->
    <rect x="0" y="0" width="64" height="64" rx="14" ry="14" fill="url(#bg)"/>
    <!-- EXACT path z Iconify ph:airplane-tilt-fill (256x256 viewBox) - kopia 1:1 z logo nav. -->
    <!-- bbox ~(26,28)-(243,232), center ~(135,130), scale 0.21 -> ~46px w favicon. -->
    <g fill="#fff" transform="translate(32 32) scale(0.21) translate(-135 -130)">
        <path d="M215.52 197.26a8 8 0 0 1-1.86 8.39l-24 24A8 8 0 0 1 184 232a7 7 0 0 1-.79 0a8 8 0 0 1-5.87-3.52l-44.07-66.12L112 183.59V208a8 8 0 0 1-2.34 5.65s-14 14.06-15.88 15.88a7.9 7.9 0 0 1-2.78 1.88a8 8 0 0 1-10.41-4.35l-.06-.15l-14.7-36.76L29 175.42a8 8 0 0 1-2.69-13.08l16-16A8 8 0 0 1 48 144h24.4l21.27-21.27l-66.11-44.08a8 8 0 0 1-1.22-12.32l24-24a8 8 0 0 1 8.39-1.86l85.94 31.25l31.53-31.53a28 28 0 0 1 39.6 39.6l-31.53 31.53Z"/>
    </g>
</svg>
